<svg version="1.0" xmlns="http://www.w3.org/2000/svg"
 width="300.000000pt" height="96.000000pt" viewBox="0 0 300.000000 96.000000">
<g transform="translate(0.000000,96.000000) scale(0.100000,-0.100000)"
fill="#ffffff" stroke="none">
<path class="first-square" d="M550 895 c-24 -29 -430 -737 -430 -750 0 -34 22 -35 466 -33 l439 3
3 24 c2 13 -1 28 -8 35 -8 8 -129 13 -399 16 l-388 5 193 335 c107 184 194
338 194 342 0 12 -31 38 -44 38 -8 0 -19 -7 -26 -15z"/>
<path d="M1750 746 l0 -76 -91 0 c-81 0 -90 -2 -87 -17 3 -15 17 -18 91 -21
l88 -3 -91 -76 c-50 -42 -89 -81 -87 -87 8 -23 29 -14 95 44 38 33 73 60 76
60 3 0 6 -32 6 -71 0 -62 2 -70 18 -67 13 3 18 17 22 70 l5 67 70 -59 c39 -33
74 -58 79 -57 26 8 10 31 -69 98 l-87 74 64 3 c83 3 108 9 108 27 0 12 -17 15
-85 15 l-84 0 -3 72 c-2 60 -6 73 -20 76 -16 3 -18 -6 -18 -72z"/>
<path d="M1163 802 c-8 -5 -12 -60 -13 -177 -2 -208 -3 -195 15 -195 13 0 15
26 15 170 l0 170 29 0 c28 0 29 -1 20 -37 -13 -56 -11 -83 6 -83 16 0 34 56
38 117 l2 38 -50 3 c-27 1 -55 -1 -62 -6z"/>
<path d="M1295 799 c-15 -23 15 -30 116 -27 84 2 104 6 104 18 0 12 -20 16
-107 18 -71 2 -109 -1 -113 -9z"/>
<path class="last-square" d="M2054 796 c-17 -13 -19 -29 -22 -146 -6 -214 -9 -210 177 -210 163 0
171 4 171 89 0 45 -3 52 -17 49 -14 -2 -19 -15 -21 -51 l-3 -48 -132 3 -132 3
0 140 0 140 130 0 130 0 3 -57 c3 -54 1 -58 -21 -63 -14 -4 -38 -5 -53 -3 -28
3 -29 5 -32 61 -3 49 -6 58 -20 55 -13 -2 -18 -16 -20 -61 l-3 -57 -49 0 c-38
0 -50 -4 -50 -15 0 -13 21 -15 129 -15 154 0 161 5 161 102 0 92 -11 98 -173
98 -99 0 -138 -4 -153 -14z"/>
<path d="M2497 792 c-14 -16 -17 -43 -17 -169 0 -193 -9 -183 172 -183 118 0
137 2 151 18 22 24 24 122 3 122 -11 0 -16 -14 -18 -47 l-3 -48 -135 0 -135 0
0 140 0 140 133 3 132 3 0 -61 c0 -54 -2 -60 -24 -66 -13 -3 -37 -4 -52 -2
-28 3 -29 5 -32 61 -3 49 -6 58 -20 55 -13 -2 -18 -16 -20 -61 l-3 -57 -49 0
c-38 0 -50 -4 -50 -15 0 -13 21 -15 128 -15 157 0 162 3 162 102 0 95 -5 98
-172 98 -118 0 -137 -2 -151 -18z"/>
<path d="M1594 789 c-7 -12 74 -99 93 -99 24 0 13 24 -29 67 -45 45 -53 50
-64 32z"/>
<path d="M1870 755 c-34 -35 -41 -48 -32 -57 9 -9 22 -2 57 32 45 44 57 70 32
70 -7 0 -33 -20 -57 -45z"/>
<path class="first-square" d="M607 758 c-48 -78 -107 -186 -107 -195 0 -19 28 -23 146 -23 129 0
143 8 109 64 -10 17 -36 64 -58 104 -43 77 -66 90 -90 50z"/>
<path d="M1457 754 c-4 -4 -7 -70 -7 -146 l0 -138 -41 0 c-33 0 -40 -3 -37
-17 5 -27 78 -30 101 -5 15 17 17 38 15 162 -3 134 -10 165 -31 144z"/>
<path d="M1310 710 c-6 -11 -10 -53 -8 -93 2 -56 6 -72 18 -72 12 0 16 16 18
73 3 64 5 72 22 72 18 0 20 -7 20 -74 0 -73 0 -75 -27 -78 -35 -4 -41 -26 -9
-34 17 -4 35 0 51 10 24 15 25 22 25 104 0 100 -7 112 -62 112 -27 0 -40 -5
-48 -20z"/>
<path d="M1224 599 c4 -24 9 -54 13 -66 4 -19 1 -23 -17 -23 -32 0 -22 -34 11
-38 44 -5 52 17 37 95 -11 52 -18 69 -32 71 -17 4 -18 -1 -12 -39z"/>
<path class="first-square" d="M504 496 c-8 -22 111 -221 132 -221 12 0 36 30 71 90 67 112 66 112
59 130 -8 21 -254 22 -262 1z"/>
<path class="first-square" d="M427 448 c-66 -108 -108 -191 -103 -203 8 -22 254 -22 262 0 3 8 -14
48 -37 89 -24 41 -52 88 -61 105 -20 37 -42 40 -61 9z"/>
<path class="first-square" d="M759 394 c-24 -43 -52 -93 -63 -112 -12 -21 -15 -37 -9 -43 5 -5 63
-8 134 -7 116 3 124 4 126 23 3 25 -108 209 -129 213 -10 2 -30 -23 -59 -74z"/>
<path d="M1990 245 l0 -95 50 0 c56 0 70 15 70 72 0 43 -15 58 -57 58 -30 0
-33 3 -33 30 0 20 -5 30 -15 30 -12 0 -15 -17 -15 -95z m88 -25 c3 -23 -2 -38
-13 -46 -29 -21 -45 -6 -45 43 0 42 1 44 28 41 23 -3 28 -8 30 -38z"/>
<path d="M1910 315 c0 -8 9 -15 20 -15 11 0 20 7 20 15 0 8 -9 15 -20 15 -11
0 -20 -7 -20 -15z"/>
<path d="M1164 215 c0 -46 4 -65 12 -65 9 0 14 19 16 52 2 42 7 54 22 56 27 6
37 -17 30 -65 -5 -35 -3 -43 9 -43 12 0 17 13 19 52 2 42 7 54 22 56 27 6 37
-17 30 -65 -5 -36 -3 -43 10 -43 14 0 16 10 14 63 l-3 62 -91 3 -90 3 0 -66z"/>
<path d="M1390 271 c0 -5 9 -30 20 -56 24 -57 25 -73 3 -97 -19 -21 -12 -34
13 -20 9 5 30 45 45 88 33 89 34 94 15 94 -8 0 -17 -15 -20 -35 -10 -49 -21
-51 -35 -5 -7 23 -18 40 -26 40 -8 0 -15 -4 -15 -9z"/>
<path d="M1530 270 c0 -6 13 -9 28 -8 32 2 55 -9 47 -23 -4 -5 -17 -9 -29 -9
-30 0 -48 -22 -44 -52 3 -20 9 -23 54 -26 l51 -3 -2 54 c-1 30 -6 60 -9 66 -9
14 -96 15 -96 1z m80 -79 c0 -20 -36 -36 -46 -20 -10 17 5 39 26 39 13 0 20
-7 20 -19z"/>
<path d="M1680 215 c0 -51 3 -65 15 -65 12 0 15 13 15 55 0 52 1 55 25 55 24
0 25 -3 25 -55 0 -42 3 -55 15 -55 12 0 15 13 15 55 0 52 1 55 25 55 24 0 25
-3 25 -55 0 -42 3 -55 15 -55 11 0 15 12 15 49 0 81 0 81 -101 81 l-89 0 0
-65z"/>
<path d="M1910 215 c0 -51 3 -65 15 -65 12 0 15 14 15 65 0 51 -3 65 -15 65
-12 0 -15 -14 -15 -65z"/>
<path d="M2155 270 c-4 -6 5 -10 22 -8 16 1 34 -1 41 -6 21 -13 13 -26 -17
-26 -34 0 -54 -20 -49 -52 3 -20 9 -23 56 -26 l52 -3 0 46 c0 67 -13 85 -60
85 -21 0 -42 -5 -45 -10z m75 -79 c0 -20 -36 -36 -46 -20 -10 17 5 39 26 39
13 0 20 -7 20 -19z"/>
<path d="M2404 272 c-37 -24 -39 -93 -4 -112 30 -16 80 -12 80 6 0 9 -6 14
-12 11 -22 -8 -48 13 -48 38 0 27 16 41 43 37 10 -2 17 3 17 12 0 17 -55 23
-76 8z"/>
<path d="M2526 258 c-36 -51 -7 -108 54 -108 29 0 43 6 54 22 36 51 7 108 -54
108 -29 0 -43 -6 -54 -22z m79 -27 c8 -26 -4 -51 -25 -51 -21 0 -33 25 -25 51
8 24 42 24 50 0z"/>
<path d="M2680 215 c0 -58 2 -65 20 -65 17 0 20 7 20 49 0 33 5 51 14 54 21 8
26 -2 26 -55 0 -41 3 -48 20 -48 17 0 20 7 20 50 0 43 3 50 20 50 17 0 20 -7
20 -50 0 -43 3 -50 20 -50 17 0 20 7 20 53 0 29 -5 58 -12 65 -8 8 -45 12
-100 12 l-88 0 0 -65z"/>
<path d="M2300 169 c0 -25 33 -22 38 4 2 12 -3 17 -17 17 -15 0 -21 -6 -21
-21z"/>
</g>
</svg>
