<svg version="1.0" xmlns="http://www.w3.org/2000/svg"
 width="900.000000pt" height="264.000000pt" viewBox="0 0 900.000000 264.000000"
 preserveAspectRatio="xMidYMid meet">
<g transform="translate(0.000000,264.000000) scale(0.100000,-0.100000)"
fill="#ffffff" stroke="none">
<path d="M4992 2540 c-21 -20 -22 -27 -22 -250 l0 -230 -87 -1 c-49 -1 -173
-2 -276 -3 l-189 -1 -24 -28 c-28 -32 -30 -46 -10 -73 13 -18 32 -19 298 -24
330 -6 328 -5 221 -90 -37 -30 -95 -78 -128 -107 -33 -28 -130 -111 -215 -184
-152 -129 -168 -146 -169 -181 -1 -24 34 -58 61 -58 18 0 130 82 189 139 9 9
63 54 119 101 56 47 123 104 149 127 25 22 49 39 53 37 5 -3 8 -101 8 -218 0
-193 2 -216 18 -237 13 -15 30 -22 52 -22 57 0 60 11 60 260 l0 224 23 -12
c21 -11 114 -86 148 -118 9 -9 38 -34 64 -56 27 -22 98 -82 157 -132 116 -99
142 -109 178 -73 28 28 25 62 -7 95 -27 27 -344 295 -407 345 -18 14 -43 35
-56 48 -13 12 -39 32 -57 45 -35 24 -43 51 -17 61 9 3 134 6 279 6 226 0 266
2 279 16 9 8 16 22 16 29 0 26 -19 62 -37 71 -10 5 -139 11 -288 14 l-270 5
-2 230 c-3 220 -4 231 -24 248 -28 23 -60 22 -87 -3z"/>
<path d="M3043 2505 c-17 -7 -43 -30 -57 -51 l-26 -39 0 -583 0 -582 27 -11
c23 -9 53 -3 85 15 2 0 5 255 8 566 l5 565 88 3 87 3 0 -32 c0 -18 -6 -58 -14
-88 -28 -111 -48 -217 -45 -239 2 -13 16 -31 32 -40 25 -15 29 -15 54 0 29 17
39 49 78 233 9 44 21 96 26 116 18 71 12 118 -20 150 l-29 29 -134 0 c-90 -1
-143 -5 -165 -15z"/>
<path class="last-square" d="M6103 2512 c-52 -4 -124 -64 -153 -128 -19 -41 -20 -66 -20 -491 l0
-449 26 -52 c18 -35 41 -63 72 -85 l47 -32 410 -3 c226 -2 429 -1 451 3 50 7
116 60 144 116 17 33 20 59 20 184 0 140 -1 148 -22 166 -29 24 -60 24 -81 1
-14 -15 -17 -41 -17 -141 0 -129 -11 -170 -49 -191 -13 -6 -164 -10 -419 -10
l-400 0 -26 31 -26 31 0 433 0 433 29 31 29 31 395 0 394 0 27 -25 26 -24 0
-166 c0 -163 0 -166 -25 -190 -23 -24 -28 -25 -173 -25 -102 0 -152 4 -160 12
-8 8 -12 62 -12 178 0 146 -2 169 -17 182 -28 24 -46 27 -75 10 l-28 -16 0
-171 c0 -120 -4 -175 -12 -183 -8 -8 -55 -12 -142 -12 -133 0 -168 -8 -189
-41 -14 -23 0 -66 26 -80 33 -19 766 -13 810 6 45 19 86 61 108 109 16 35 19
67 19 217 0 185 -5 215 -49 271 -12 15 -37 37 -57 49 -35 21 -42 22 -437 23
-221 1 -421 0 -444 -2z"/>
<path d="M7590 2510 c-82 -10 -151 -80 -169 -171 -12 -62 -8 -877 4 -924 5
-16 31 -53 60 -81 49 -49 55 -52 116 -59 35 -3 240 -5 454 -3 l390 3 38 24
c21 13 50 42 65 64 26 39 27 47 31 194 4 174 -5 203 -58 203 -48 0 -58 -29
-62 -177 -4 -123 -6 -133 -28 -157 l-24 -26 -407 0 -407 0 -22 24 -22 24 0
448 1 449 26 23 25 22 395 0 396 0 29 -29 29 -29 0 -157 0 -157 -29 -29 -29
-29 -150 0 c-116 0 -152 3 -161 14 -8 9 -11 66 -10 176 1 140 -2 164 -17 181
-24 27 -68 24 -92 -6 -18 -23 -19 -36 -14 -173 7 -202 15 -192 -149 -192 -169
0 -204 -16 -191 -88 3 -12 14 -27 25 -33 13 -8 142 -11 398 -10 410 2 416 3
474 58 62 58 65 72 65 282 0 208 -6 237 -62 287 -66 60 -45 57 -476 58 -218 1
-417 -1 -442 -4z"/>
<path d="M3470 2488 c-23 -25 -26 -56 -6 -84 14 -18 29 -19 365 -19 338 0 351
1 365 20 22 29 19 58 -7 83 -23 22 -28 22 -360 22 -333 0 -336 0 -357 -22z"/>
<path class="first-square" d="M1442 2480 c-18 -11 -36 -28 -39 -38 -4 -9 -39 -71 -78 -137 -39 -66
-74 -127 -78 -135 -4 -8 -16 -28 -27 -45 -11 -16 -23 -37 -27 -45 -4 -8 -39
-69 -78 -135 -39 -66 -74 -127 -78 -135 -4 -8 -16 -28 -27 -45 -11 -16 -23
-37 -27 -45 -4 -8 -32 -58 -63 -110 -31 -52 -59 -102 -63 -110 -4 -8 -16 -28
-27 -45 -11 -16 -23 -37 -27 -45 -8 -17 -89 -158 -103 -180 -6 -8 -15 -24 -20
-35 -6 -11 -19 -33 -30 -50 -11 -16 -23 -37 -27 -45 -4 -8 -32 -58 -63 -110
-31 -52 -59 -102 -63 -110 -4 -8 -16 -28 -27 -45 -11 -16 -23 -37 -27 -45 -4
-8 -39 -69 -78 -135 -39 -66 -74 -127 -78 -135 -4 -8 -13 -24 -20 -35 -83
-140 -86 -158 -28 -216 l39 -39 1218 0 c1188 0 1220 1 1248 19 80 53 73 160
-14 195 -36 14 -147 16 -1120 16 -1215 0 -1105 -8 -1052 79 16 25 31 53 35 61
4 8 16 29 27 45 11 17 23 37 27 45 4 8 32 58 63 110 31 52 59 102 63 110 4 8
16 29 27 45 11 17 23 37 27 45 4 8 40 71 80 139 40 67 73 124 73 126 0 2 40
70 88 152 48 81 91 155 95 163 4 8 11 22 17 30 15 22 155 263 163 280 4 8 16
29 27 45 11 17 23 37 27 45 4 8 32 58 63 110 31 52 59 102 63 110 4 8 16 29
26 45 66 102 79 175 39 212 -53 48 -94 54 -146 23z"/>
<path d="M4464 2455 c-10 -15 -14 -34 -10 -49 7 -29 239 -272 280 -293 24 -13
33 -13 53 -2 34 18 48 56 30 83 -8 11 -73 81 -144 154 -112 115 -133 132 -161
132 -23 0 -36 -7 -48 -25z"/>
<path d="M5403 2348 c-121 -123 -153 -162 -153 -186 0 -18 50 -62 70 -62 33 0
309 287 310 321 0 33 -29 59 -66 59 -25 0 -51 -22 -161 -132z"/>
<path d="M4010 2320 c-19 -19 -20 -33 -20 -465 0 -534 15 -485 -148 -485 -119
0 -132 -5 -132 -56 0 -54 25 -64 166 -64 l122 0 44 33 c75 58 73 37 76 550 l3
457 -25 25 c-30 30 -59 32 -86 5z"/>
<path d="M3595 2243 c-37 -10 -87 -55 -106 -97 -16 -36 -19 -68 -19 -257 0
-204 1 -218 21 -243 25 -31 57 -33 87 -6 21 20 22 28 22 231 0 126 4 218 10
230 9 15 22 19 70 19 48 0 61 -4 70 -19 6 -12 10 -107 10 -240 0 -211 -1 -220
-21 -234 -11 -8 -29 -13 -40 -10 -10 3 -43 2 -73 -1 -44 -6 -55 -12 -65 -32
-14 -31 -5 -71 19 -84 10 -6 56 -10 102 -10 105 0 152 23 186 90 21 42 22 55
22 290 0 275 -2 286 -74 344 -33 27 -44 30 -119 32 -45 2 -91 0 -102 -3z"/>
<path class="first-square" d="M1640 2133 c-33 -23 -47 -42 -98 -137 -64 -119 -91 -168 -110 -198
-138 -220 -141 -225 -142 -265 0 -23 7 -37 26 -52 26 -20 38 -21 351 -21 291
0 328 2 354 17 17 10 32 28 35 40 7 25 -25 102 -61 149 -14 18 -25 35 -25 38
0 3 -13 24 -29 48 -16 24 -39 61 -51 83 -12 22 -30 55 -41 74 -12 19 -37 66
-57 105 -37 71 -92 136 -115 136 -7 0 -24 -8 -37 -17z"/>
<path d="M3245 1942 c-50 -10 -54 -32 -30 -146 65 -299 66 -286 -10 -286 -50
0 -75 -23 -75 -68 0 -44 28 -56 126 -56 93 0 123 14 144 64 11 27 11 43 -2
103 -9 40 -24 110 -33 157 -36 184 -50 223 -76 230 -13 3 -33 4 -44 2z"/>
<path class="first-square" d="M1311 1348 c-37 -39 -28 -74 54 -203 72 -112 153 -254 201 -352 25
-53 74 -103 99 -103 48 0 76 32 148 170 24 47 88 157 141 245 53 88 100 171
103 183 4 15 -1 33 -14 50 l-20 27 -346 3 c-345 2 -346 2 -366 -20z"/>
<path class="first-square" d="M1131 1248 c-33 -12 -46 -31 -140 -203 -29 -53 -116 -199 -163 -273
-37 -59 -58 -104 -58 -123 0 -32 17 -56 47 -66 32 -10 647 -10 679 0 11 4 27
19 34 33 12 21 12 31 -2 69 -9 24 -34 70 -55 102 -22 32 -42 65 -46 73 -4 8
-16 29 -27 45 -11 17 -24 39 -30 50 -6 11 -26 47 -45 80 -19 33 -45 83 -59
110 -24 49 -67 97 -96 107 -8 3 -26 1 -39 -4z"/>
<path class="first-square" d="M2164 1250 c-29 -12 -63 -58 -117 -161 -24 -47 -75 -136 -113 -198
-38 -62 -74 -121 -79 -131 -6 -10 -16 -24 -22 -31 -20 -25 -33 -90 -22 -110
22 -42 48 -45 385 -44 286 1 325 3 348 18 51 34 33 86 -96 285 -10 15 -22 36
-28 47 -6 11 -26 47 -45 80 -20 33 -47 83 -61 110 -47 92 -53 101 -71 117 -25
22 -54 28 -79 18z"/>
<path d="M5797 918 c-15 -12 -16 -24 -6 -133 6 -70 8 -191 5 -292 l-7 -172 23
-5 c27 -6 82 -14 154 -22 142 -17 234 82 234 251 0 74 -3 86 -29 121 -55 76
-62 79 -175 80 l-101 0 -1 83 c0 89 -7 101 -55 101 -14 0 -33 -6 -42 -12z
m255 -255 c60 -54 63 -183 7 -261 -8 -12 -32 -29 -52 -37 -32 -13 -41 -13 -71
-1 -40 17 -46 38 -46 181 0 84 3 105 18 117 35 32 110 32 144 1z"/>
<path d="M5536 898 c-20 -28 -20 -48 0 -76 23 -33 83 -27 103 9 12 22 12 31 2
58 -12 27 -18 31 -52 31 -28 0 -42 -6 -53 -22z"/>
<path d="M3168 745 c-3 -4 -42 -7 -85 -8 -64 -2 -77 -5 -73 -17 3 -8 6 -102 8
-207 l3 -193 44 0 45 0 0 159 c0 191 5 202 87 204 84 3 87 -3 93 -201 l5 -167
34 -3 c18 -2 38 1 44 7 7 7 10 66 8 163 l-3 153 27 25 c38 35 108 35 136 0 18
-23 19 -39 17 -178 -1 -96 2 -156 9 -163 6 -6 26 -9 44 -7 l34 3 3 182 2 182
-29 33 c-28 32 -31 33 -108 32 -43 0 -98 -1 -123 -3 -25 -2 -83 0 -130 4 -47
4 -88 4 -92 0z"/>
<path d="M4297 743 c-27 -4 -55 -39 -42 -51 4 -4 52 -7 107 -7 93 0 101 -2
119 -24 22 -26 25 -60 7 -65 -7 -2 -49 -11 -92 -21 -102 -22 -145 -58 -153
-127 -14 -124 79 -186 218 -145 24 7 63 11 85 9 27 -2 44 1 50 9 13 21 4 320
-10 354 -26 60 -47 69 -159 71 -56 1 -114 0 -130 -3z m187 -219 c12 -5 16 -21
16 -71 l0 -64 -45 -20 c-43 -19 -47 -19 -80 -3 -31 14 -35 21 -35 53 1 48 21
73 78 93 26 9 48 17 49 17 1 1 8 -2 17 -5z"/>
<path d="M4750 738 c-18 -7 -21 -13 -15 -31 5 -12 9 -103 11 -202 l2 -180 25
-9 c13 -5 36 -6 51 -2 l26 6 0 164 c0 189 4 198 86 200 37 1 49 -4 65 -24 17
-23 19 -40 18 -179 -2 -171 0 -175 64 -169 l32 3 3 164 c2 108 7 169 14 179
19 22 60 34 95 27 57 -10 67 -44 61 -217 l-6 -148 26 -7 c13 -3 37 -2 51 3
l26 9 3 150 c3 161 -7 213 -49 251 -21 19 -80 23 -219 16 -25 -2 -113 -1 -196
1 -83 2 -161 0 -174 -5z"/>
<path d="M5546 743 l-28 -5 7 -66 c5 -37 7 -131 7 -209 l-2 -143 25 -6 c14 -3
36 -3 50 0 l25 6 -2 213 -3 212 -25 1 c-14 1 -38 -1 -54 -3z"/>
<path d="M6378 743 c-26 -4 -47 -37 -33 -51 4 -4 50 -7 102 -7 92 0 95 -1 119
-29 40 -45 30 -57 -67 -76 -102 -21 -120 -30 -154 -74 -20 -26 -25 -44 -25
-88 0 -51 3 -58 35 -87 44 -38 72 -45 138 -36 29 3 81 10 117 13 l65 7 3 177
2 178 -34 37 -34 37 -103 2 c-57 1 -116 0 -131 -3z m210 -272 c5 -70 -2 -85
-53 -103 -53 -20 -85 -12 -111 26 -15 24 -15 28 3 63 22 41 66 63 123 60 34
-2 35 -3 38 -46z"/>
<path d="M7222 739 c-49 -14 -114 -85 -136 -147 -29 -83 -10 -168 52 -234 51
-55 187 -85 259 -57 35 13 43 25 43 67 0 36 -16 41 -66 21 -22 -8 -38 -6 -71
6 -57 22 -83 65 -83 139 0 47 4 60 29 88 28 31 33 33 93 31 34 -1 68 3 75 9
19 15 16 75 -3 82 -24 9 -154 5 -192 -5z"/>
<path d="M7690 741 c-37 -9 -106 -61 -126 -95 -19 -33 -30 -134 -20 -199 17
-114 180 -189 303 -139 96 39 153 125 153 230 -1 90 -63 181 -139 202 -39 11
-131 11 -171 1z m103 -92 c39 -17 57 -60 57 -131 0 -58 -3 -67 -31 -96 -35
-36 -64 -40 -95 -14 -26 22 -54 82 -54 118 0 39 36 109 63 122 29 14 32 14 60
1z"/>
<path d="M8121 742 l-33 -3 8 -62 c5 -34 8 -128 7 -210 -1 -167 -4 -162 88
-155 l44 3 5 160 5 160 29 14 c42 20 78 5 93 -39 9 -25 11 -72 6 -159 -5 -99
-3 -125 8 -132 21 -13 103 -11 117 3 8 8 12 59 12 165 l0 153 28 11 c16 6 39
7 57 2 26 -8 31 -15 43 -68 11 -48 11 -78 2 -154 -7 -58 -8 -97 -2 -103 5 -5
36 -8 68 -6 l59 3 3 145 c3 172 0 200 -35 241 l-26 31 -126 -1 c-69 -1 -193 0
-276 2 -82 1 -165 1 -184 -1z"/>
<path d="M3770 707 c0 -18 4 -37 9 -42 26 -28 141 -326 141 -365 0 -36 -50
-103 -89 -120 -26 -10 -31 -18 -29 -39 4 -33 35 -39 94 -16 48 18 67 49 99
160 17 56 59 169 91 243 89 205 90 212 30 212 -52 0 -65 -9 -72 -48 -7 -43
-51 -181 -63 -201 -12 -19 -28 -7 -34 26 -2 16 -15 53 -27 83 -12 30 -26 70
-30 89 -11 42 -24 51 -77 51 -42 0 -43 -1 -43 -33z"/>
<path d="M6860 438 c-47 -25 -45 -105 3 -121 64 -21 121 34 97 94 -7 16 -18
29 -24 29 -6 0 -20 3 -31 5 -11 3 -31 0 -45 -7z"/>
</g>
</svg>